<svg width="32" height="32" viewBox="0 0 32 32" fill="none" xmlns="http://www.w3.org/2000/svg">
<path d="M26.3483 2.94287H6.42544C4.7071 2.94287 3.3125 4.34919 3.3125 6.08197V26.1722C3.3125 27.905 4.7071 29.3113 6.42544 29.3113H26.3483C28.0666 29.3113 29.4612 27.905 29.4612 26.1722V6.08197C29.4612 4.34919 28.0666 2.94287 26.3483 2.94287ZM11.4062 12.988V24.9166H7.67062V12.988H11.4062ZM7.67062 9.51615C7.67062 8.6372 8.41773 7.96543 9.53839 7.96543C10.659 7.96543 11.3626 8.6372 11.4062 9.51615C11.4062 10.3951 10.7089 11.1045 9.53839 11.1045C8.41773 11.1045 7.67062 10.3951 7.67062 9.51615ZM25.1031 24.9166H21.3676C21.3676 24.9166 21.3676 19.103 21.3676 18.6384C21.3676 17.3827 20.745 16.1271 19.1885 16.102H19.1387C17.632 16.102 17.0094 17.3953 17.0094 18.6384C17.0094 19.2097 17.0094 24.9166 17.0094 24.9166H13.2739V12.988H17.0094V14.5952C17.0094 14.5952 18.211 12.988 20.6267 12.988C23.0984 12.988 25.1031 14.7019 25.1031 18.1738V24.9166Z" fill="white"/>
</svg>
