<svg width="32" height="32" viewBox="0 0 32 32" fill="none" xmlns="http://www.w3.org/2000/svg">
<path d="M15.5643 2.94287C8.58012 2.94287 2.91797 8.6526 2.91797 15.6955C2.91797 21.7171 7.05818 26.7608 12.624 28.0979C12.3361 28.0287 12.0506 27.9512 11.7704 27.8629V24.9411C11.7704 24.9411 11.2962 25.1005 10.6638 25.1005C8.89482 25.1005 8.15987 23.5089 7.9765 22.7094C7.86511 22.2223 7.57425 21.7608 7.26198 21.4788C6.88892 21.1433 6.7143 21.1423 6.71187 21.0275C6.707 20.7867 7.03192 20.7965 7.1861 20.7965C7.9765 20.7965 8.57574 21.6446 8.85396 22.083C9.54319 23.1655 10.283 23.347 10.6638 23.347C11.1381 23.347 11.5476 23.2754 11.8297 23.1381C11.9601 22.212 12.3687 21.3871 13.035 20.7965C10.0695 20.1986 7.9765 18.4834 7.9765 15.6955C7.9765 14.2593 8.54802 12.9394 9.50038 11.8736C9.4031 11.5955 9.24113 11.0329 9.24113 10.1162C9.24113 9.51046 9.28296 8.76688 9.55729 8.04391C9.55729 8.04391 11.3609 8.05666 13.0618 9.68115C13.8468 9.45062 14.6868 9.31917 15.5643 9.31917C16.4418 9.31917 17.2818 9.45062 18.0668 9.68115C19.7677 8.05666 21.5713 8.04391 21.5713 8.04391C21.8471 8.76688 21.8875 9.51046 21.8875 10.1162C21.8875 11.1045 21.7571 11.6809 21.6773 11.9295C22.6005 12.9855 23.1521 14.2848 23.1521 15.6955C23.1521 18.4834 21.0591 20.1986 18.0936 20.7965C18.8854 21.4979 19.3582 22.5196 19.3582 23.6658V27.8629C19.078 27.9517 18.793 28.0287 18.5046 28.0979C24.0704 26.7608 28.2106 21.7171 28.2106 15.6955C28.2106 8.6526 22.5485 2.94287 15.5643 2.94287ZM16.4461 28.4137C16.1548 28.4343 15.861 28.4481 15.5643 28.4481C15.861 28.4481 16.1543 28.4338 16.4461 28.4137ZM15.5643 28.4481C15.2676 28.4481 14.9738 28.4343 14.6825 28.4137C14.9743 28.4338 15.2676 28.4481 15.5643 28.4481ZM14.4884 28.399C13.8964 28.3485 13.3157 28.2573 12.75 28.1273C13.3162 28.2568 13.8964 28.3485 14.4884 28.399Z" fill="white"/>
</svg>
