<svg width="32" height="32" viewBox="0 0 32 32" fill="none" xmlns="http://www.w3.org/2000/svg">
<path d="M7.71759 2.51123C5.31787 2.51123 3.35938 4.48602 3.35938 6.9057V24.4836C3.35938 26.9032 5.31787 28.878 7.71759 28.878H25.1504C27.5501 28.878 29.5086 26.9032 29.5086 24.4836V6.9057C29.5086 4.48602 27.5501 2.51123 25.1504 2.51123H7.71759ZM7.71759 3.76679H25.1504C26.8773 3.76679 28.2634 5.16444 28.2634 6.9057V24.4836C28.2634 26.2248 26.8773 27.6225 25.1504 27.6225H7.71759C5.9907 27.6225 4.60458 26.2248 4.60458 24.4836V6.9057C4.60458 5.16444 5.9907 3.76679 7.71759 3.76679ZM9.01629 8.16126L14.7583 16.3874L8.96279 23.228H10.5193L15.4612 17.3941L19.5324 23.228H24.4743L18.1705 14.1963L23.2826 8.16126H21.7261L17.4676 13.1896L13.9582 8.16126H9.01629ZM11.3997 9.41682H13.3076L22.0909 21.9724H20.183L11.3997 9.41682Z" fill="white"/>
</svg>
